<svg width="29" height="31" viewBox="0 0 29 31" fill="none" xmlns="http://www.w3.org/2000/svg">
<g clip-path="url(#clip0_1_28)">
<path d="M0.398842 19.0625V24.875C0.398842 25.4984 0.924288 26 1.57741 26H7.6667C7.99081 26 8.25598 25.7469 8.25598 25.4375V23.5625C8.25598 23.2531 7.99081 23 7.6667 23H3.5417V19.0625C3.5417 18.7531 3.27652 18.5 2.95241 18.5H0.988128C0.66402 18.5 0.398842 18.7531 0.398842 19.0625ZM14.5417 25.4375V23.5625C14.5417 23.2531 14.8069 23 15.131 23H19.256V19.0625C19.256 18.7531 19.5212 18.5 19.8453 18.5H21.8096C22.1337 18.5 22.3988 18.7531 22.3988 19.0625V24.875C22.3988 25.4984 21.8734 26 21.2203 26H15.131C14.8069 26 14.5417 25.7469 14.5417 25.4375ZM21.8096 12.5H19.8453C19.5212 12.5 19.256 12.2469 19.256 11.9375V8H15.131C14.8069 8 14.5417 7.74687 14.5417 7.4375V5.5625C14.5417 5.25313 14.8069 5 15.131 5H21.2203C21.8734 5 22.3988 5.50156 22.3988 6.125V11.9375C22.3988 12.2469 22.1337 12.5 21.8096 12.5ZM8.25598 5.5625V7.4375C8.25598 7.74687 7.99081 8 7.6667 8H3.5417V11.9375C3.5417 12.2469 3.27652 12.5 2.95241 12.5H0.988128C0.66402 12.5 0.398842 12.2469 0.398842 11.9375V6.125C0.398842 5.50156 0.924288 5 1.57741 5H7.6667C7.99081 5 8.25598 5.25313 8.25598 5.5625Z" fill="#AFAFAF"/>
</g>
<defs>
<clipPath id="clip0_1_28">
<rect width="28" height="31" fill="white" transform="matrix(1 0 0 -1 0.398842 31)"/>
</clipPath>
</defs>
</svg>
