<svg width="26" height="25" viewBox="0 0 26 25" fill="none" xmlns="http://www.w3.org/2000/svg">
<path d="M23.5238 15L22.2738 14.2708C20.9197 13.4375 20.9197 11.4583 22.2738 10.625L23.5238 9.89583C24.5655 9.27083 24.878 8.02083 24.253 7.08333L23.2113 5.3125C22.5863 4.27083 21.3363 3.95833 20.3988 4.58333L19.1488 5.3125C17.7947 6.14583 16.0238 5.10417 16.0238 3.54167V2.08333C16.0238 0.9375 15.0863 0 13.9405 0H11.8572C10.7113 0 9.77384 0.9375 9.77384 2.08333V3.4375C9.77384 5 8.00301 6.04167 6.64884 5.20833L5.39884 4.58333C4.35718 3.95833 3.10718 4.375 2.58634 5.3125L1.54468 7.08333C1.02384 8.125 1.33634 9.375 2.27384 10L3.52384 10.7292C4.87801 11.4583 4.87801 13.5417 3.52384 14.2708L2.27384 15C1.23218 15.625 0.919677 16.875 1.54468 17.8125L2.58634 19.5833C3.21134 20.625 4.46134 20.9375 5.39884 20.3125L6.64884 19.6875C8.00301 18.8542 9.77384 19.8958 9.77384 21.4583V22.9167C9.77384 24.0625 10.7113 25 11.8572 25H13.9405C15.0863 25 16.0238 24.0625 16.0238 22.9167V21.5625C16.0238 20 17.7947 18.9583 19.1488 19.7917L20.3988 20.5208C21.4405 21.1458 22.6905 20.7292 23.2113 19.7917L24.253 18.0208C24.7738 16.875 24.4613 15.625 23.5238 15ZM12.8988 16.6667C10.6072 16.6667 8.73218 14.7917 8.73218 12.5C8.73218 10.2083 10.6072 8.33333 12.8988 8.33333C15.1905 8.33333 17.0655 10.2083 17.0655 12.5C17.0655 14.7917 15.1905 16.6667 12.8988 16.6667Z" fill="#AFAFAF"/>
</svg>
