<svg width="26" height="24" viewBox="0 0 26 24" fill="none" xmlns="http://www.w3.org/2000/svg">
<g clip-path="url(#clip0_1_24)">
<path d="M16.0238 24V0L5.08634 7.5H0.398844V16.5H5.08634L16.0238 24Z" fill="#AFAFAF"/>
<path d="M17.5863 20.865C22.0192 20.1495 25.3988 16.458 25.3988 12C25.3988 7.54201 22.0192 3.85051 17.5863 3.13501V4.65151C21.1473 5.34901 23.8363 8.37751 23.8363 12C23.8363 15.6225 21.1473 18.651 17.5863 19.3485V20.865Z" fill="#AFAFAF"/>
<path d="M17.5863 14.583V16.224C19.4035 15.6045 20.7113 13.956 20.7113 12C20.7113 10.044 19.4035 8.3955 17.5863 7.776V9.417C18.516 9.9375 19.1488 10.8945 19.1488 12C19.1488 13.1055 18.516 14.0625 17.5863 14.583Z" fill="#AFAFAF"/>
</g>
<defs>
<clipPath id="clip0_1_24">
<rect width="25" height="24" fill="white" transform="translate(0.398844)"/>
</clipPath>
</defs>
</svg>
